<svg xmlns="http://www.w3.org/2000/svg" width="780" height="440" viewBox="0 0 780 440"><defs><style>.d{fill:#fff;}.e{fill:#db61db;}.f{fill:#98e58e;}.g{fill:#162020;}.h{fill:#2bb656;}.i{fill:#17b8ce;}</style></defs><g id="a"><rect class="f" x=".0018" y=".0014" width="780" height="440"></rect></g><g id="b"><g><g><rect class="i" x="295.4978" y="125.4978" width="189.0043" height="189.0043" rx="11.234" ry="11.234"></rect><path class="g" d="M473.2686,315.127h-166.5371c-6.5391,0-11.8584-5.3193-11.8584-11.8584V136.7319c0-6.5391,5.3193-11.8589,11.8584-11.8589h166.5371c6.5391,0,11.8584,5.3198,11.8584,11.8589v166.5366c0,6.5391-5.3193,11.8584-11.8584,11.8584ZM306.7314,126.123c-5.8496,0-10.6084,4.7593-10.6084,10.6089v166.5366c0,5.8496,4.7588,10.6084,10.6084,10.6084h166.5371c5.8496,0,10.6084-4.7588,10.6084-10.6084V136.7319c0-5.8496-4.7588-10.6089-10.6084-10.6089h-166.5371Z"></path></g><g><g><rect class="d" x="330.7221" y="243.9679" width="118.5563" height="28.6613"></rect><path class="g" d="M449.2783,273.2539h-118.5566c-.166,0-.3252-.0654-.4424-.1826s-.1826-.2764-.1826-.4424l.001-28.6611c0-.3447,.2803-.625,.625-.625h118.5557c.3447,0,.625,.2803,.625,.625v28.6611c0,.3447-.2803,.625-.625,.625Zm-117.9316-1.25h117.3066v-27.4111h-117.3057l-.001,27.4111Z"></path></g><g><g><line class="d" x1="367.6143" y1="163.2882" x2="367.6143" y2="183.7455"></line><path class="g" d="M367.6143,184.3706c-.3447,0-.625-.2798-.625-.625v-20.4575c0-.3452,.2803-.625,.625-.625s.625,.2798,.625,.625v20.4575c0,.3452-.2803,.625-.625,.625Z"></path></g><g><path class="d" d="M345.5626,219.9229c.1914-.3303,.2918-.7053,.2918-1.087v-34.3637s88.2903,0,88.2903,0v34.3637c-.0003,.3817,.1005,.7567,.2918,1.087,4.1328,7.4544,6.8608,15.6047,8.048,24.045h-104.9692c1.1872-8.4403,3.9147-16.5906,8.0472-24.045Z"></path><path class="g" d="M442.4844,244.5928h-104.9688c-.1807,0-.3525-.0781-.4717-.2148s-.1729-.3184-.1475-.4971c1.2021-8.5488,3.9336-16.7119,8.1191-24.2612l.0059-.0103c.1357-.2344,.208-.502,.208-.7734v-34.3638c0-.3452,.2803-.625,.625-.625h88.29c.3447,0,.625,.2798,.625,.625v34.3638c0,.2715,.0723,.5391,.208,.7734,4.1924,7.5615,6.9238,15.7236,8.126,24.2715,.0254,.1787-.0283,.3604-.1475,.4971s-.291,.2148-.4717,.2148Zm-104.2461-1.25h103.5234c-1.2295-8.1367-3.876-15.9102-7.8721-23.1167-.2402-.4141-.3701-.8984-.3701-1.3901v-33.7388h-87.04v33.7388c0,.4893-.1289,.9717-.373,1.3945-3.9932,7.2041-6.6387,14.9756-7.8682,23.1123Z"></path></g><g><rect class="d" x="355.1858" y="152.8787" width="24.8569" height="13.1559"></rect><path class="g" d="M380.043,166.6597h-24.8574c-.3447,0-.625-.2798-.625-.625v-13.1558c0-.3452,.2803-.625,.625-.625h24.8574c.3447,0,.625,.2798,.625,.625v13.1558c0,.3452-.2803,.625-.625,.625Zm-24.2324-1.25h23.6074v-11.9058h-23.6074v11.9058Z"></path></g><g><rect class="d" x="355.1858" y="193.4726" width="24.8569" height="13.1559"></rect><path class="g" d="M380.043,207.2534h-24.8574c-.3447,0-.625-.2798-.625-.625v-13.1558c0-.3452,.2803-.625,.625-.625h24.8574c.3447,0,.625,.2798,.625,.625v13.1558c0,.3452-.2803,.625-.625,.625Zm-24.2324-1.25h23.6074v-11.9058h-23.6074v11.9058Z"></path></g><g><polygon class="d" points="420.1222 193.4736 420.1222 218.3306 395.9589 218.3306 395.9589 193.4736 402.4093 197.015 408.8598 193.4736 414.2045 197.1993 420.1222 193.4736"></polygon><path class="g" d="M420.1221,218.9556h-24.1631c-.3447,0-.625-.2798-.625-.625v-24.8569c0-.2207,.1162-.4253,.3066-.5381,.1895-.1123,.4248-.1157,.6191-.0098l6.1494,3.3765,6.1494-3.3765c.207-.1147,.4619-.1021,.6582,.0352l5.0049,3.4888,5.5674-3.5049c.1924-.1206,.4365-.1284,.6348-.0186,.1992,.1104,.3232,.3198,.3232,.5474v24.8569c0,.3452-.2803,.625-.625,.625Zm-23.5381-1.25h22.9131v-23.1001l-4.96,3.1226c-.2109,.1348-.4834,.1279-.6904-.0161l-5.0264-3.5039-6.1104,3.355c-.1875,.1025-.4141,.1025-.6016,0l-5.5244-3.0332v23.1758Z"></path></g><g><line class="d" x1="426.6548" y1="218.5775" x2="389.4263" y2="218.5775"></line><path class="g" d="M426.6553,219.2026h-37.2285c-.3447,0-.625-.2798-.625-.625s.2803-.625,.625-.625h37.2285c.3447,0,.625,.2798,.625,.625s-.2803,.625-.625,.625Z"></path></g><g><g><g><circle class="d" cx="378.2268" cy="220.421" r="3.5017"></circle><path class="g" d="M378.2266,224.5479c-2.2754,0-4.126-1.8516-4.126-4.127s1.8506-4.1265,4.126-4.1265,4.127,1.8511,4.127,4.1265-1.8516,4.127-4.127,4.127Zm0-7.0034c-1.5859,0-2.876,1.2905-2.876,2.8765s1.29,2.877,2.876,2.877,2.877-1.291,2.877-2.877-1.291-2.8765-2.877-2.8765Z"></path></g><g><circle class="d" cx="366.8002" cy="220.421" r="3.5017"></circle><path class="g" d="M366.7998,224.5479c-2.2754,0-4.126-1.8516-4.126-4.127s1.8506-4.1265,4.126-4.1265,4.127,1.8511,4.127,4.1265-1.8516,4.127-4.127,4.127Zm0-7.0034c-1.5859,0-2.876,1.2905-2.876,2.8765s1.29,2.877,2.876,2.877,2.877-1.291,2.877-2.877-1.291-2.8765-2.877-2.8765Z"></path></g><g><circle class="d" cx="355.3737" cy="220.421" r="3.5017"></circle><path class="g" d="M355.374,224.5479c-2.2754,0-4.127-1.8516-4.127-4.127s1.8516-4.1265,4.127-4.1265,4.126,1.8511,4.126,4.1265-1.8506,4.127-4.126,4.127Zm0-7.0034c-1.5859,0-2.877,1.2905-2.877,2.8765s1.291,2.877,2.877,2.877,2.876-1.291,2.876-2.877-1.29-2.8765-2.876-2.8765Z"></path></g></g><g><g><circle class="d" cx="378.2268" cy="231.479" r="3.5017"></circle><path class="g" d="M378.2266,235.6055c-2.2754,0-4.126-1.8506-4.126-4.126s1.8506-4.127,4.126-4.127,4.127,1.8516,4.127,4.127-1.8516,4.126-4.127,4.126Zm0-7.0029c-1.5859,0-2.876,1.291-2.876,2.877s1.29,2.876,2.876,2.876,2.877-1.29,2.877-2.876-1.291-2.877-2.877-2.877Z"></path></g><g><circle class="d" cx="366.8002" cy="231.479" r="3.5017"></circle><path class="g" d="M366.7998,235.6055c-2.2754,0-4.126-1.8506-4.126-4.126s1.8506-4.127,4.126-4.127,4.127,1.8516,4.127,4.127-1.8516,4.126-4.127,4.126Zm0-7.0029c-1.5859,0-2.876,1.291-2.876,2.877s1.29,2.876,2.876,2.876,2.877-1.29,2.877-2.876-1.291-2.877-2.877-2.877Z"></path></g><g><circle class="d" cx="355.3737" cy="231.479" r="3.5017"></circle><path class="g" d="M355.374,235.6055c-2.2754,0-4.127-1.8506-4.127-4.126s1.8516-4.127,4.127-4.127,4.126,1.8516,4.126,4.127-1.8506,4.126-4.126,4.126Zm0-7.0029c-1.5859,0-2.877,1.291-2.877,2.877s1.291,2.876,2.877,2.876,2.876-1.29,2.876-2.876-1.29-2.877-2.876-2.877Z"></path></g></g></g></g><g><rect class="d" x="379.3594" y="257.2809" width="21.2811" height="4.9761" rx="1.1489" ry="1.1489" transform="translate(780 519.5379) rotate(180)"></rect><path class="g" d="M399.4912,262.8818h-18.9824c-.9785,0-1.7744-.7959-1.7744-1.7734v-2.6787c0-.9775,.7959-1.7734,1.7744-1.7734h18.9824c.9785,0,1.7744,.7959,1.7744,1.7734v2.6787c0,.9775-.7959,1.7734-1.7744,1.7734Zm-18.9824-4.9756c-.2891,0-.5244,.2344-.5244,.5234v2.6787c0,.2891,.2354,.5234,.5244,.5234h18.9824c.2891,0,.5244-.2344,.5244-.5234v-2.6787c0-.2891-.2354-.5234-.5244-.5234h-18.9824Z"></path></g></g></g><g><g><rect class="e" x="77.0426" y="125.4978" width="189.0043" height="189.0043" rx="11.234" ry="11.234"></rect><path class="g" d="M254.8125,315.127H88.2764c-6.5391,0-11.8584-5.3193-11.8584-11.8584V136.7319c0-6.5391,5.3193-11.8589,11.8584-11.8589H254.8125c6.5391,0,11.8594,5.3198,11.8594,11.8589v166.5366c0,6.5391-5.3203,11.8584-11.8594,11.8584ZM88.2764,126.123c-5.8496,0-10.6084,4.7593-10.6084,10.6089v166.5366c0,5.8496,4.7588,10.6084,10.6084,10.6084H254.8125c5.8496,0,10.6094-4.7588,10.6094-10.6084V136.7319c0-5.8496-4.7598-10.6089-10.6094-10.6089H88.2764Z"></path></g><g><g><path class="d" d="M144.9494,241.2818h79.6299l16.8406-52.2442h-113.3111l16.8406,52.2442Z"></path><path class="g" d="M225.0342,241.9072h-80.54l-17.2441-53.4946h115.0283l-17.2441,53.4946Zm-79.6299-1.25h78.7197l16.4375-50.9946h-111.5947l16.4375,50.9946Z"></path></g><polygon class="g" points="223.668 250.7158 135.9414 250.7158 135.7998 250.2881 111.8545 178.1426 101.6699 178.1426 101.6699 176.8926 112.7568 176.8926 112.8984 177.3208 136.8438 249.4658 223.668 249.4658 223.668 250.7158"></polygon><g><circle class="d" cx="158.4716" cy="263.6999" r="8.954"></circle><path class="g" d="M158.4717,273.2793c-5.2822,0-9.5791-4.2969-9.5791-9.5791s4.2969-9.5791,9.5791-9.5791,9.5791,4.2969,9.5791,9.5791-4.2969,9.5791-9.5791,9.5791Zm0-17.9082c-4.5928,0-8.3291,3.7363-8.3291,8.3291s3.7363,8.3291,8.3291,8.3291,8.3291-3.7363,8.3291-8.3291-3.7363-8.3291-8.3291-8.3291Z"></path></g><g><circle class="d" cx="209.3976" cy="263.6999" r="8.954"></circle><path class="g" d="M209.3975,273.2793c-5.2822,0-9.5791-4.2969-9.5791-9.5791s4.2969-9.5791,9.5791-9.5791,9.5791,4.2969,9.5791,9.5791-4.2969,9.5791-9.5791,9.5791Zm0-17.9082c-4.5928,0-8.3291,3.7363-8.3291,8.3291s3.7363,8.3291,8.3291,8.3291,8.3291-3.7363,8.3291-8.3291-3.7363-8.3291-8.3291-8.3291Z"></path></g></g></g><g><g><rect class="h" x="513.9531" y="125.4978" width="189.0043" height="189.0043" rx="11.234" ry="11.234"></rect><path class="g" d="M691.7236,315.127h-166.5361c-6.5391,0-11.8594-5.3193-11.8594-11.8584V136.7319c0-6.5391,5.3203-11.8589,11.8594-11.8589h166.5361c6.5391,0,11.8584,5.3198,11.8584,11.8589v166.5366c0,6.5391-5.3193,11.8584-11.8584,11.8584Zm-166.5361-189.0039c-5.8496,0-10.6094,4.7593-10.6094,10.6089v166.5366c0,5.8496,4.7598,10.6084,10.6094,10.6084h166.5361c5.8496,0,10.6084-4.7588,10.6084-10.6084V136.7319c0-5.8496-4.7588-10.6089-10.6084-10.6089h-166.5361Z"></path></g><g><path class="g" d="M630.2314,189.6973h-1.25c0-11.3179-9.208-20.5259-20.5264-20.5259s-20.5254,9.208-20.5254,20.5259h-1.25c0-12.0073,9.7686-21.7759,21.7754-21.7759s21.7764,9.7686,21.7764,21.7759Z"></path><g><polygon class="d" points="655.6376 269.8453 561.2729 269.8453 572.7826 188.0701 644.128 188.0701 655.6376 269.8453"></polygon><path class="g" d="M656.3564,270.4707h-95.8027l.0996-.7119,11.5859-82.3135h72.4316l.0762,.5381,11.6094,82.4873Zm-94.3652-1.25h92.9277l-11.334-80.5254h-70.2598l-11.334,80.5254Z"></path></g><g><path class="d" d="M629.606,207.5939c0,11.6812-9.4695,21.1507-21.1507,21.1507s-21.1507-9.4695-21.1507-21.1507"></path><path class="g" d="M608.4551,229.3691c-12.0068,0-21.7754-9.7686-21.7754-21.7754h1.25c0,11.3179,9.208,20.5254,20.5254,20.5254s20.5264-9.2075,20.5264-20.5254h1.25c0,12.0068-9.7686,21.7754-21.7764,21.7754Z"></path></g></g></g></g></svg>